<?xml version="1.0" encoding="utf-8"?>
<!-- Generator: Adobe Illustrator 27.6.1, SVG Export Plug-In . SVG Version: 6.00 Build 0)  -->
<svg version="1.1" id="Camada_1" xmlns="http://www.w3.org/2000/svg" xmlns:xlink="http://www.w3.org/1999/xlink" x="0px" y="0px"
	 viewBox="0 0 595.28 841.89" style="enable-background:new 0 0 595.28 841.89;" xml:space="preserve">
<style type="text/css">
	.st0{fill:#FFFFFF;}
</style>
<g>
	<g>
		<path class="st0" d="M273.93,145.74H133.07v339.3h140.87V314.52l-23.99-13.95l23.99-13.52V145.74z M182.79,195.46h41.43v92.46
			l-41.43-23.99V195.46z M224.21,372.19l0,63.14h-41.43V318.45l67.16,38.88L224.21,372.19z"/>
		<path class="st0" d="M406.5,145.74v166.6l-67.15-38.2l25.73-14.85l0-113.55h-49.73v170.54l23.99,13.95l-23.99,13.52v141.29h140.87
			v-339.3H406.5z M406.5,435.32h-41.42v-92.46l41.42,23.99V435.32z"/>
	</g>
	<g>
		<path class="st0" d="M0,552.02h34.25c11.69,0,20.22,2.72,25.59,8.15c5.37,5.43,8.05,13.79,8.05,25.07v5.78
			c0,7.43-1.21,13.48-3.61,18.16c-2.41,4.68-6.09,8.05-11.04,10.11v0.41c11.28,3.85,16.92,13.9,16.92,30.13v12.38
			c0,11.14-2.92,19.64-8.77,25.48c-5.85,5.85-14.41,8.77-25.69,8.77H0V552.02z M31.57,610.83c4.54,0,7.94-1.17,10.21-3.51
			c2.27-2.34,3.4-6.26,3.4-11.76v-8.05c0-5.23-0.93-9.01-2.79-11.35c-1.86-2.34-4.78-3.51-8.77-3.51H22.7v38.17H31.57z M35.7,675.83
			c3.99,0,6.94-1.06,8.87-3.2c1.92-2.13,2.89-5.81,2.89-11.04V649c0-6.6-1.13-11.17-3.4-13.72c-2.27-2.54-6.02-3.82-11.25-3.82H22.7
			v44.36H35.7z"/>
		<path class="st0" d="M83.36,552.02h33.63c11.69,0,20.22,2.72,25.59,8.15c5.36,5.43,8.05,13.79,8.05,25.07v8.87
			c0,14.99-4.95,24.49-14.86,28.47V623c5.5,1.65,9.39,5.02,11.66,10.11c2.27,5.09,3.4,11.9,3.4,20.43v25.38
			c0,4.13,0.14,7.46,0.41,10.01c0.27,2.55,0.96,5.06,2.06,7.53H130.2c-0.83-2.34-1.38-4.54-1.65-6.6
			c-0.28-2.06-0.41-5.78-0.41-11.14V652.3c0-6.6-1.07-11.21-3.2-13.83c-2.13-2.61-5.81-3.92-11.04-3.92h-7.84v61.9h-22.7V552.02z
			 M114.31,613.93c4.54,0,7.94-1.17,10.21-3.51c2.27-2.34,3.4-6.26,3.4-11.76v-11.14c0-5.23-0.93-9.01-2.79-11.35
			c-1.86-2.34-4.78-3.51-8.77-3.51h-10.32v41.27H114.31z"/>
		<path class="st0" d="M184.05,552.02h30.75l23.52,144.44h-22.7l-4.13-28.68v0.41H185.7l-4.13,28.27h-21.05L184.05,552.02z
			 M208.81,648.59L198.7,577.2h-0.41l-9.9,71.39H208.81z"/>
		<path class="st0" d="M245.54,676.24l42.09-103.58H247.6v-20.63h64.38v20.22l-42.09,103.58h42.09v20.63h-66.44V676.24z"/>
		<path class="st0" d="M321.26,676.24l42.09-103.58h-40.03v-20.63h64.38v20.22l-42.09,103.58h42.09v20.63h-66.44V676.24z"/>
		<path class="st0" d="M400.49,552.02h22.7v144.44h-22.7V552.02z"/>
		<path class="st0" d="M440.11,552.02h34.67c11.28,0,19.74,3.03,25.38,9.08c5.64,6.05,8.46,14.93,8.46,26.62v73.04
			c0,11.69-2.82,20.57-8.46,26.62c-5.64,6.06-14.1,9.08-25.38,9.08h-34.67V552.02z M474.36,675.83c3.71,0,6.57-1.1,8.56-3.3
			c1.99-2.2,2.99-5.78,2.99-10.73v-75.11c0-4.95-1-8.53-2.99-10.73c-2-2.2-4.85-3.3-8.56-3.3h-11.56v103.17H474.36z"/>
		<path class="st0" d="M541.01,552.02h30.74l23.52,144.44h-22.7l-4.13-28.68v0.41h-25.79l-4.13,28.27h-21.05L541.01,552.02z
			 M565.77,648.59l-10.11-71.39h-0.41l-9.9,71.39H565.77z"/>
	</g>
</g>
</svg>
